<?xml version="1.0" encoding="UTF-8"?>
<svg id="Layer_1" xmlns="http://www.w3.org/2000/svg" version="1.1" viewBox="0 0 800 800">
  <!-- Generator: Adobe Illustrator 29.0.0, SVG Export Plug-In . SVG Version: 2.1.0 Build 186)  -->
  <defs>
    <style>
      .st0 {
        fill: #283b99;
      }
    </style>
  </defs>
  <path class="st0" d="M737.5,0H62.5C28,0,0,28,0,62.5v675c0,34.5,28,62.5,62.5,62.5h675c34.5,0,62.5-28,62.5-62.5V62.5c0-34.5-28-62.5-62.5-62.5ZM488.3,332.2l-4.5,59.8h-61.4v207.8h-77.5v-207.8h-41.4v-59.8h41.4v-40.2c0-17.7.5-45,13.3-62,13.6-18,32.2-30.2,64.2-30.2,52.2,0,74.1,7.5,74.1,7.5l-10.3,61.3s-17.2-5-33.3-5-30.5,5.8-30.5,21.9v46.7h65.9Z"/>
</svg>