<svg width="159" height="30" viewBox="0 0 159 30" fill="none" xmlns="http://www.w3.org/2000/svg">
                                <path d="M71.0901 0.710144H79.4562V11.3768H87.7347V0.710144H96.1008V28.3913H87.7347V18.0145H79.4562V28.3913H71.0901V0.710144Z" fill="#886DFF"/>
                                <path d="M103.635 25.4783C101.255 23.1304 100.058 19.4928 100.058 14.5652C100.058 9.63768 101.211 6.08696 103.533 3.65217C105.839 1.21739 109.387 0 114.147 0C116.994 0 120.002 0.681159 123.17 2.02899V9.13043C120.382 7.18841 117.768 6.23188 115.315 6.23188C113.169 6.23188 111.534 6.85507 110.409 8.10145C109.285 9.34783 108.716 11.5217 108.716 14.6232C108.716 17.7246 109.3 19.7826 110.453 21C111.607 22.2029 113.373 22.8116 115.739 22.8116C116.688 22.8116 117.797 22.5797 119.082 22.1304C120.367 21.6812 121.725 20.9565 123.185 20V27.1014C122.119 27.6812 120.732 28.1594 119.009 28.5072C117.286 28.8696 115.666 29.0435 114.162 29.0435C109.533 29.0435 106.029 27.8696 103.649 25.5217L103.635 25.4783Z" fill="#886DFF"/>
                                <path d="M159 0.710144V28.3913H150.634V11.3768L143.275 20.8406L135.917 11.3333V28.3913H127.974V0.710144H136.413L143.523 10.0435L150.795 0.710144H158.985H159Z" fill="#886DFF"/>
                                <path d="M44.1959 9.08694C44.1959 3.72463 41.1152 0.942017 34.0339 0.942017C30.4422 0.942017 27.4636 1.49274 24.5289 2.79709V21.5072H29.9311L31.7562 14.4638H27.7265L28.8069 10.2754L33.6981 7.28984H39.8011L36.6328 21.5072H44.2105V9.08694H44.1959Z" fill="#886DFF"/>
                                <path d="M46.9992 7.39129H62.9868V0.942017H43.9915C45.7727 2.49274 46.7802 4.66665 46.9992 7.39129Z" fill="#886DFF"/>
                                <path d="M62.9868 21.5073H47.043V27.7681H62.9868V21.5073Z" fill="#886DFF"/>
                                <path d="M62.9868 11.2319H47.043V17.4927H62.9868V11.2319Z" fill="#886DFF"/>
                                <path d="M28.0038 22.7826H24.5143V23.9565H28.0038V22.7826Z" fill="#886DFF"/>
                                <path d="M28.0038 24.5507H24.5143V25.7246H28.0038V24.5507Z" fill="#886DFF"/>
                                <path d="M28.0038 26.4058H24.5143V27.5797H28.0038V26.4058Z" fill="#886DFF"/>
                                <path d="M35.8442 25.3043C36.0341 25.029 36.1217 24.7101 36.1217 24.3913C36.1217 23.8695 35.9611 23.4493 35.6252 23.1884C35.304 22.9275 34.866 22.7826 34.2966 22.7826H31.9021V24.0145H34.1652C34.2966 24.0145 34.3988 24.0435 34.4572 24.1014C34.5156 24.1739 34.5594 24.2898 34.5594 24.4348C34.5594 24.8261 34.3842 24.8985 34.1214 24.8985H31.9167V27.6377H33.406V26.0869H33.771L34.6616 27.6377H36.5305L35.3186 25.7826C35.5376 25.6667 35.7274 25.5072 35.8588 25.2898L35.8442 25.3043Z" fill="#886DFF"/>
                                <path d="M43.6848 23.1884C43.3489 22.913 42.8963 22.7826 42.3123 22.7826H40.093V24.0145H42.1809C42.5021 24.0145 42.6335 24.1594 42.6335 24.5072C42.6335 24.6522 42.6043 24.7681 42.5313 24.8406C42.4583 24.913 42.3415 24.9565 42.1809 24.9565H40.093V27.6522H41.5823V26.1884H42.3123C42.8963 26.1884 43.3489 26.029 43.6848 25.7391C44.0206 25.4348 44.1958 25 44.1958 24.4493C44.1958 23.8985 44.0206 23.4782 43.6848 23.2029V23.1884Z" fill="#886DFF"/>
                                <path d="M15.7832 0.942017H5.76722C2.5989 0.942017 0 3.52173 0 6.66665V22.029C0 25.1739 2.5989 27.7536 5.76722 27.7536H15.7832C18.9515 27.7536 21.5504 25.1739 21.5504 22.029V6.66665C21.5504 3.52173 18.9515 0.942017 15.7832 0.942017ZM15.3306 19.8406C15.3306 20.7536 14.5859 21.4927 13.6661 21.4927H7.8989C6.97906 21.4927 6.23443 20.7536 6.23443 19.8406V9.15941C6.23443 8.24636 6.97906 7.50723 7.8989 7.50723H13.6661C14.5859 7.50723 15.3306 8.24636 15.3306 9.15941V19.8406Z" fill="#886DFF"/>
 </svg>
