<svg width="16" height="19" viewBox="0 0 16 19" fill="none" xmlns="http://www.w3.org/2000/svg">
<path d="M9.0664 19H6.93307C5.35093 19 4.47947 19 3.71893 18.5859C3.0456 18.2191 2.50827 17.6451 2.16507 16.9252C1.7776 16.1124 1.7776 15.181 1.7776 13.4901V4.75007H0.8888C0.397867 4.75007 0 4.32485 0 3.80017C0 3.27549 0.397867 2.85027 0.8888 2.85027H3.80373L3.8416 2.72858C4.10133 1.89553 4.24453 1.43639 4.5688 1.022C4.8544 0.657207 5.22427 0.372208 5.6384 0.198074C6.1088 0 6.5616 0 7.3832 0H8.61627C9.43787 0 9.89067 0 10.3611 0.197789C10.7752 0.371923 11.1451 0.656637 11.4307 1.02172C11.7552 1.43639 11.8981 1.89524 12.1581 2.72829L12.196 2.84999H15.1109C15.6019 2.84999 15.9997 3.2752 15.9997 3.79989C15.9997 4.32457 15.6019 4.74979 15.1109 4.74979H14.2221V13.4898C14.2221 15.1807 14.2221 16.1121 13.8347 16.9249C13.4917 17.6445 12.9544 18.2188 12.2808 18.5856C11.5203 18.9997 10.6485 18.9997 9.06667 18.9997L9.0664 19ZM3.5552 4.75007V13.4901C3.5552 14.8869 3.5552 15.6561 3.74907 16.0628C3.92053 16.4225 4.18933 16.7098 4.52587 16.893C4.90613 17.1002 5.62613 17.1002 6.93307 17.1002H9.0664C10.3733 17.1002 11.0931 17.1002 11.4736 16.893C11.8104 16.7098 12.0789 16.4225 12.2504 16.0628C12.4443 15.6561 12.4443 14.8869 12.4443 13.4901V4.75007H11.576C11.5621 4.75036 11.5483 4.75036 11.5344 4.75007H4.46533C4.45147 4.75036 4.43733 4.75036 4.42347 4.75007H3.55547H3.5552ZM5.6792 2.84999H10.32C10.2184 2.53791 10.1416 2.33642 10.0667 2.24037C9.97147 2.11868 9.84827 2.02378 9.71013 1.96592C9.55333 1.90009 9.20053 1.90009 8.616 1.90009H7.38293C6.7984 1.90009 6.4456 1.90009 6.2888 1.96592C6.15067 2.02406 6.02747 2.11896 5.93227 2.24066C5.85733 2.33642 5.78053 2.53791 5.67893 2.84999H5.6792ZM9.7776 15.1998C9.28667 15.1998 8.8888 14.7746 8.8888 14.2499V7.60006C8.8888 7.07538 9.28667 6.65016 9.7776 6.65016C10.2685 6.65016 10.6664 7.07538 10.6664 7.60006V14.2499C10.6664 14.7746 10.2685 15.1998 9.7776 15.1998ZM6.22187 15.1998C5.73093 15.1998 5.33307 14.7746 5.33307 14.2499V7.60006C5.33307 7.07538 5.73093 6.65016 6.22187 6.65016C6.7128 6.65016 7.11067 7.07538 7.11067 7.60006V14.2499C7.11067 14.7746 6.7128 15.1998 6.22187 15.1998Z" fill="white"/>
</svg>
