<svg width="20" height="20" viewBox="0 0 20 20" fill="none" xmlns="http://www.w3.org/2000/svg">
<path d="M15.6604 19.9979H3.51541C2.08153 19.9979 0.913086 18.8294 0.913086 17.3955V5.25051C0.913086 3.81664 2.08153 2.64819 3.51541 2.64819H6.9843C7.46313 2.64819 7.85087 3.03594 7.85087 3.51477C7.85087 3.99359 7.46313 4.38134 6.9843 4.38134H3.51541C3.03658 4.38134 2.64883 4.77169 2.64883 5.24791V17.3929C2.64883 17.8718 3.03918 18.2595 3.51541 18.2595H15.6604C16.1393 18.2595 16.527 17.8692 16.527 17.3929V13.924C16.527 13.4452 16.9148 13.0575 17.3936 13.0575C17.8724 13.0575 18.2602 13.4452 18.2602 13.924V17.3929C18.2602 18.8268 17.0917 19.9953 15.6578 19.9953L15.6604 19.9979Z" fill="white"/>
<path d="M6.98736 14.7936C6.75575 14.7936 6.53195 14.6999 6.36801 14.5334C6.19625 14.3564 6.10517 14.1144 6.12339 13.8698L6.38362 9.96632C6.39663 9.75553 6.48771 9.56035 6.63604 9.40942L14.875 1.16787C15.0389 1.00392 15.2575 0.912842 15.4891 0.912842C15.7207 0.912842 15.9393 1.00392 16.1033 1.16787L19.7465 4.81112C20.0848 5.14942 20.0848 5.69591 19.7491 6.03421L11.5076 14.3616C11.3541 14.5178 11.1485 14.6089 10.9299 14.6193L7.02639 14.7936C7.01338 14.7936 7.00037 14.7936 6.98736 14.7936ZM8.09074 10.4035L7.91639 13.0136L10.5109 12.8991L17.9067 5.42527L15.4865 3.00511L8.09074 10.4009V10.4035Z" fill="white"/>
</svg>

