<?xml version="1.0" encoding="UTF-8"?>
<svg id="Layer_1" xmlns="http://www.w3.org/2000/svg" xmlns:xlink="http://www.w3.org/1999/xlink" version="1.1" viewBox="0 0 90 90">
  <!-- Generator: Adobe Illustrator 29.0.0, SVG Export Plug-In . SVG Version: 2.1.0 Build 186)  -->
  <defs>
    <style>
      .st0 {
        fill: url(#linear-gradient);
      }

      .st1 {
        fill: #fff;
      }

      .st2 {
        fill: none;
        stroke: #fff;
        stroke-linejoin: round;
        stroke-width: 4.4px;
      }
    </style>
    <linearGradient id="linear-gradient" x1="0" y1="45" x2="90" y2="45" gradientUnits="userSpaceOnUse">
      <stop offset="0" stop-color="#4f0f80"/>
      <stop offset="0" stop-color="#4d0f81"/>
      <stop offset="1" stop-color="#2217b7"/>
    </linearGradient>
  </defs>
  <circle class="st0" cx="45" cy="45" r="45"/>
  <g>
    <path class="st1" d="M-50.9,61.2v-7.1l-3.5-.9c-.3-.9-.6-1.7-1.1-2.6l1.8-3.1-5-5-3.1,1.8c-.8-.4-1.7-.8-2.6-1.1l-.9-3.5h-7.1l-.9,3.5c-.9.3-1.7.6-2.6,1.1l-3.1-1.8-.2.2v-2.9h-2.8c-.8,0-1.6-.3-2.1-.9-.5-.6-.8-1.4-.7-2.2.1-1.4,1.4-2.5,3-2.5h2.7v-8.5c0-1.6-1.3-2.8-2.8-2.8h-7.5v-.8c0-2.5-1.9-4.6-4.2-4.8-1.3-.1-2.6.3-3.6,1.2-1,.9-1.5,2.2-1.5,3.5v.9h-7.5c-1.6,0-2.8,1.3-2.8,2.8v8.5h2.7c1.5,0,2.8,1.1,3,2.5,0,.8-.2,1.6-.7,2.2-.5.6-1.3.9-2.1.9h-2.8v8.5c0,1.6,1.3,2.8,2.8,2.8h9.4v-2.7c0-1.5,1.1-2.8,2.5-3,.8,0,1.6.2,2.2.7.6.5.9,1.3.9,2.1v2.8h9.1c-.3.7-.6,1.4-.9,2.1l-3.5.9v7.1l3.5.9c.3.9.6,1.7,1.1,2.6l-1.8,3.1,5,5,3.1-1.8c.8.4,1.7.8,2.6,1.1l.9,3.5h7.1l.9-3.5c.9-.3,1.7-.6,2.6-1.1l3.1,1.8,5-5-1.8-3.1c.4-.8.8-1.7,1.1-2.6l3.5-.9ZM-91.1,44.8c-1-.9-2.3-1.3-3.6-1.2-2.4.2-4.2,2.4-4.2,4.8v.8h-7.5c-.5,0-.9-.4-.9-.9v-6.6h.9c1.3,0,2.6-.6,3.5-1.5.9-1,1.3-2.3,1.2-3.6-.2-2.4-2.4-4.2-4.8-4.2h-.8v-6.6c0-.5.4-.9.9-.9h9.4v-2.8c0-.8.3-1.6.9-2.1.6-.5,1.4-.8,2.2-.7,1.4.1,2.5,1.4,2.5,3v2.7h9.4c.5,0,.9.4.9.9v6.6h-.8c-2.5,0-4.6,1.9-4.8,4.2-.1,1.3.3,2.6,1.2,3.6.9,1,2.2,1.5,3.5,1.5h.9v2.9l-2.9,2.9,1,1.7h-6.5v-.9c0-1.3-.6-2.6-1.5-3.5ZM-56,60.6v.5c-.4,1.1-.9,2.2-1.4,3.1l-.3.5,1.7,2.8-3,3-2.8-1.7-.5.3c-1,.6-2,1-3.1,1.3h-.5c0,.1-.8,3.3-.8,3.3h-4.2l-.8-3.1h-.5c-1.1-.4-2.2-.9-3.1-1.4l-.5-.3-2.8,1.7-3-3,1.7-2.8-.3-.5c-.6-1-1-2-1.3-3.1v-.5c-.1,0-3.3-.8-3.3-.8v-4.2l3.1-.8v-.5c.4-1.1.9-2.2,1.4-3.1l.3-.5-1.7-2.8,3-3,2.8,1.7.5-.3c1-.6,2-1,3.1-1.3h.5c0-.1.8-3.3.8-3.3h4.2l.8,3.1h.5c1.1.4,2.2.9,3.1,1.4l.5.3,2.8-1.7,3,3-1.7,2.8.3.5c.6,1,1,2,1.3,3.1v.5c.1,0,3.3.8,3.3.8v4.2l-3.1.8Z"/>
    <path class="st1" d="M-68.8,50.1c-4.2,0-7.5,3.4-7.5,7.5s3.4,7.5,7.5,7.5,3.2-.5,4.5-1.5l-1.1-1.5c-1,.7-2.2,1.1-3.4,1.1-3.1,0-5.6-2.5-5.6-5.6s2.5-5.6,5.6-5.6,5.6,2.5,5.6,5.6-.4,2.4-1.1,3.4l1.5,1.1c1-1.3,1.5-2.9,1.5-4.5,0-4.2-3.4-7.5-7.5-7.5Z"/>
    <path class="st1" d="M-68.8,46.4c-6.2,0-11.3,5.1-11.3,11.3s5.1,11.3,11.3,11.3,11.3-5.1,11.3-11.3-5.1-11.3-11.3-11.3ZM-68.8,67.1c-5.2,0-9.4-4.2-9.4-9.4s4.2-9.4,9.4-9.4,9.4,4.2,9.4,9.4-4.2,9.4-9.4,9.4Z"/>
    <rect class="st1" x="-61.3" y="22.8" width="1.9" height="1.9"/>
    <rect class="st1" x="-61.3" y="26.6" width="1.9" height="1.9"/>
    <rect class="st1" x="-59.4" y="24.7" width="1.9" height="1.9"/>
    <rect class="st1" x="-63.2" y="24.7" width="1.9" height="1.9"/>
    <rect class="st1" x="-70.7" y="30.4" width="1.9" height="1.9"/>
    <rect class="st1" x="-70.7" y="34.1" width="1.9" height="1.9"/>
    <rect class="st1" x="-68.8" y="32.3" width="1.9" height="1.9"/>
    <rect class="st1" x="-72.6" y="32.3" width="1.9" height="1.9"/>
    <rect class="st1" x="-57.5" y="34.1" width="1.9" height="1.9"/>
    <rect class="st1" x="-57.5" y="37.9" width="1.9" height="1.9"/>
    <rect class="st1" x="-55.6" y="36" width="1.9" height="1.9"/>
    <rect class="st1" x="-59.4" y="36" width="1.9" height="1.9"/>
    <rect class="st1" x="-75.4" y="19.1" width="1.9" height="1.9"/>
    <rect class="st1" x="-75.4" y="22.8" width="1.9" height="1.9"/>
    <rect class="st1" x="-73.5" y="21" width="1.9" height="1.9"/>
    <rect class="st1" x="-77.3" y="21" width="1.9" height="1.9"/>
    <rect class="st1" x="-93.3" y="60.5" width="1.9" height="1.9"/>
    <rect class="st1" x="-93.3" y="64.3" width="1.9" height="1.9"/>
    <rect class="st1" x="-91.4" y="62.4" width="1.9" height="1.9"/>
    <rect class="st1" x="-95.2" y="62.4" width="1.9" height="1.9"/>
    <rect class="st1" x="-102.7" y="54.9" width="1.9" height="1.9"/>
    <rect class="st1" x="-102.7" y="58.6" width="1.9" height="1.9"/>
    <rect class="st1" x="-100.8" y="56.7" width="1.9" height="1.9"/>
    <rect class="st1" x="-104.6" y="56.7" width="1.9" height="1.9"/>
  </g>
  <g id="Combined-Shape-2">
    <path id="Combined-Shape" class="st2" d="M25.6,42.7v-13.3h10v-2.2c0-3.7,3-6.7,6.7-6.7s6.7,3,6.7,6.7v2.2h10v13.3h4.4c3.7,0,6.7,3,6.7,6.7s-3,6.7-6.7,6.7h-4.4v8.9H25.6v-8.9h4.4c3.7,0,6.7-3,6.7-6.7s-3-6.7-6.7-6.7h-4.4Z"/>
  </g>
</svg>