<svg class="right-arrow" width="11" height="19" viewBox="0 0 11 19" fill="none" xmlns="http://www.w3.org/2000/svg">
<path d="M9.43043 11.0027C9.02776 11.0027 8.62604 10.849 8.31861 10.5425L0.460487 2.68318C-0.153414 2.06927 -0.153414 1.07436 0.460487 0.460439C1.07439 -0.15348 2.06927 -0.15348 2.68317 0.460439L10.5413 8.31879C11.1552 8.93271 11.1552 9.92762 10.5413 10.5415C10.2348 10.848 9.83215 11.0017 9.42948 11.0017L9.43043 11.0027Z" fill="#60FF00"/>
<path d="M1.57224 18.861C1.16957 18.861 0.767848 18.7073 0.460426 18.4008C-0.153475 17.7869 -0.153475 16.792 0.460426 16.178L8.31855 8.31969C8.93246 7.70577 9.92733 7.70577 10.5412 8.31969C11.1551 8.93361 11.1551 9.92852 10.5412 10.5424L2.68311 18.4008C2.37663 18.7073 1.97396 18.861 1.57224 18.861Z" fill="#60FF00"/>
</svg>
